<?xml version="1.0" encoding="UTF-8" standalone="no"?> <svg id="Layer_1" data-name="Layer 1" xmlns="http://www.w3.org/2000/svg" viewBox="0 0 512 512"><title>Games</title><path d="M483.625,160.105c-.646-2.213-1.217-4.173-1.7-5.852C465.614,97.28,403.336,63.213,343.095,78.317a115.627,115.627,0,0,0-36.816,16.348H205.721a115.616,115.616,0,0,0-36.816-16.348C108.669,63.213,46.387,97.28,30.073,154.252c-.481,1.68-1.053,3.639-1.7,5.853-21.153,72.511-45.37,175.72-11.6,234.609,11.7,20.4,29.11,33.626,51.746,39.3a106.847,106.847,0,0,0,26.051,3.223c52.166,0,103.194-38.008,132.714-100.354H305.8c14.321,32.764,29.149,55.944,46.161,72.314,19.46,18.727,41.5,28.137,65.785,28.136a105.688,105.688,0,0,0,25.736-3.319c22.635-5.675,40.045-18.9,51.745-39.3C528.995,335.825,504.778,232.616,483.625,160.105Zm-25.4,213.39c-5.87,10.237-13.851,16.32-25.114,19.144-26.551,6.654-58.4,1.758-93.337-85.047a21.329,21.329,0,0,0-19.786-13.365H213.343a21.329,21.329,0,0,0-19.786,13.365c-20.037,49.783-64.464,97.633-114.665,85.047-11.263-2.824-19.243-8.907-25.114-19.144C34.77,340.347,40,272.571,69.325,172.051c.668-2.29,1.259-4.318,1.757-6.055,10.051-35.1,49.283-55.873,87.451-46.3a72.785,72.785,0,0,1,27.19,13.135,21.324,21.324,0,0,0,13.095,4.494H313.182a21.324,21.324,0,0,0,13.095-4.494,72.785,72.785,0,0,1,27.19-13.135c38.173-9.568,77.4,11.2,87.451,46.3h0c.5,1.736,1.088,3.764,1.756,6.054C472,272.571,477.23,340.347,458.222,373.495Z"/><path d="M192.022,192.022H170.687V170.687a21.328,21.328,0,1,0-42.657,0v21.335H106.7a21.328,21.328,0,1,0,0,42.657H128.03v21.335a21.328,21.328,0,0,0,42.657,0V234.678h21.335a21.328,21.328,0,0,0,0-42.657Z"/><circle cx="319.978" cy="213.35" r="21.328"/><circle cx="405.305" cy="213.35" r="21.328"/><circle cx="362.641" cy="256.013" r="21.328"/><circle cx="362.641" cy="170.687" r="21.328"/></svg>