<?xml version="1.0" encoding="UTF-8" standalone="no"?> <svg width="64" height="64" viewBox="0 0 64 64" fill="none" xmlns="http://www.w3.org/2000/svg">
<path d="M61.25 47.48V33.48C61.25 25.7224 58.1683 18.2825 52.6829 12.7971C47.1974 7.31167 39.7576 4.22998 32 4.22998C24.2424 4.22998 16.8026 7.31167 11.3171 12.7971C5.83169 18.2825 2.75 25.7224 2.75 33.48V47.48C2.74869 49.09 3.0645 50.6845 3.67941 52.1724C4.29432 53.6604 5.19628 55.0127 6.3338 56.152C7.47132 57.2914 8.82212 58.1956 10.3091 58.8129C11.796 59.4303 13.39 59.7487 15 59.75C16.6576 59.75 18.2473 59.0915 19.4194 57.9194C20.5915 56.7473 21.25 55.1576 21.25 53.5V41.5C21.25 39.8424 20.5915 38.2527 19.4194 37.0806C18.2473 35.9085 16.6576 35.25 15 35.25C13.1101 35.253 11.2465 35.6934 9.55502 36.5365C7.86357 37.3796 6.39014 38.6027 5.25 40.11V33.5C5.25 26.4054 8.0683 19.6015 13.0849 14.5849C18.1015 9.56828 24.9055 6.74998 32 6.74998C39.0945 6.74998 45.8985 9.56828 50.9151 14.5849C55.9317 19.6015 58.75 26.4054 58.75 33.5V40.11C57.6099 38.6027 56.1364 37.3796 54.445 36.5365C52.7535 35.6934 50.8899 35.253 49 35.25C47.3424 35.25 45.7527 35.9085 44.5806 37.0806C43.4085 38.2527 42.75 39.8424 42.75 41.5V53.5C42.75 55.1576 43.4085 56.7473 44.5806 57.9194C45.7527 59.0915 47.3424 59.75 49 59.75C52.2481 59.7473 55.3624 58.4559 57.6591 56.1591C59.9559 53.8624 61.2474 50.7481 61.25 47.5V47.48Z" fill="black"/>
</svg>
