<?xml version="1.0" encoding="iso-8859-1"?>
<!-- Generator: Adobe Illustrator 21.1.0, SVG Export Plug-In . SVG Version: 6.00 Build 0)  -->
<svg version="1.1" id="Layer_1" xmlns="http://www.w3.org/2000/svg" xmlns:xlink="http://www.w3.org/1999/xlink" x="0px" y="0px"
	 viewBox="0 0 100.353 100.353" style="enable-background:new 0 0 100.353 100.353;" xml:space="preserve">
<g>
	<path d="M50.472,21.55c-10.518,0-19.075,8.833-19.075,19.691s8.557,19.691,19.075,19.691s19.075-8.834,19.075-19.691
		S60.99,21.55,50.472,21.55z M66.479,39.84l-7.005-0.019c-0.196-6.164-1.655-11.328-3.868-14.384
		C61.548,27.525,65.937,33.118,66.479,39.84z M50.735,57.036c-2.566,0-5.417-5.999-5.738-14.253l11.475,0.031
		C56.145,51.053,53.298,57.036,50.735,57.036z M44.995,39.783c0.305-8.298,3.165-14.338,5.74-14.338
		c2.578,0,5.441,6.056,5.74,14.369L44.995,39.783z M46.044,25.208c-2.306,3.014-3.839,8.26-4.047,14.567l-7.528-0.02
		C35.063,32.806,39.772,27.08,46.044,25.208z M34.471,42.755l7.528,0.02c0.216,6.277,1.747,11.496,4.046,14.498
		C39.781,55.405,35.075,49.691,34.471,42.755z M55.605,57.044c2.194-3.029,3.648-8.128,3.865-14.222l6.999,0.019
		C65.858,49.475,61.489,54.977,55.605,57.044z"/>
	<path d="M86.923,10.427H13.071c-4.932,0-8.944,4.016-8.944,8.951v44.394c0,4.932,4.012,8.944,8.944,8.944h9.908V92
		c0,0.594,0.35,1.132,0.893,1.372c0.195,0.086,0.401,0.128,0.606,0.128c0.366,0,0.728-0.134,1.009-0.39l22.447-20.395h38.988
		c4.936,0,8.951-4.013,8.951-8.944V19.378C95.874,14.442,91.858,10.427,86.923,10.427z M92.874,63.772
		c0,3.277-2.67,5.944-5.951,5.944H47.355c-0.373,0-0.732,0.139-1.009,0.39L25.979,88.611V71.216c0-0.828-0.671-1.5-1.5-1.5H13.071
		c-3.277,0-5.944-2.667-5.944-5.944V19.378c0-3.281,2.667-5.951,5.944-5.951h73.852c3.281,0,5.951,2.67,5.951,5.951V63.772z"/>
</g>
</svg>
