<?xml version="1.0" encoding="utf-8"?>
<!-- Generator: Adobe Illustrator 23.0.3, SVG Export Plug-In . SVG Version: 6.00 Build 0)  -->
<svg version="1.1" id="Icons" xmlns="http://www.w3.org/2000/svg" xmlns:xlink="http://www.w3.org/1999/xlink" x="0px" y="0px"
	 viewBox="0 0 32 32" style="enable-background:new 0 0 32 32;" xml:space="preserve">
<style type="text/css">
	.st0{fill:none;stroke:#000000;stroke-width:2;stroke-linecap:round;stroke-linejoin:round;stroke-miterlimit:10;}
</style>
<path class="st0" d="M30,24L30,24c-9.3-1.3-18.7-1.3-28,0l0,0V6l0,0c9.3,1.3,18.7,1.3,28,0l0,0V24z"/>
<path class="st0" d="M24.7,28c-0.9-2.9-4.5-5-8.7-5c-4.3,0-7.8,2.1-8.7,5"/>
<path class="st0" d="M13,12V18c0,0.7,0.9,1.2,1.5,0.8l5-3c0.6-0.4,0.6-1.2,0-1.6l-5-3C13.9,10.7,13,11.2,13,12z"/>
</svg>
